:SAMPLES-PER-SECOND 24
:FULLY-SPECIFIED
:DEGREES
464
root  -6.77073 40.3097 -0.385577 -177.179 75.4628 170.719
RightUpLeg  -12.9545 9.73401 -8.64745
RightLeg  21.6417 -4.743 -2.2654
RightFoot  -11.1757 -0.0856552 6.4817
RightToes  -2.09809e-008 3.77894e-005 6.81332e-007
Spine  -6.91374 0.562559 0.790602
Spine1  7.78864 1.02241 -2.10271
HEad  -18.042 41.3945 -14.9979
LeftShoulder1  5.75162 -11.2825 -32.897
LeftArm  1.5386 30.6656 -34.9216
LeftForeArm  172.885 -57.4739 -164.617
LeftHand  0.0448597 -2.65647 -0.439469
RightShoulder  3.49255 6.0909 30.4996
RightArm  17.966 -34.4512 27.9447
RightForeArm  163.619 67.2521 155.972
RightHand  -0.164838 9.22765 -1.70104
LeftUpLeg  -19.1385 -0.69307 13.912
LeftLeg  19.5777 6.58861 2.88627
LeftFoot  9.92595 3.36607 -18.2355
LeftToes  1.24773e-006 1.46318e-008 1.32523e-009
465
root  -7.01969 39.0036 -0.477217 -170.494 75.5333 177.921
RightUpLeg  -15.4203 8.26014 -6.80075
RightLeg  27.9664 -3.66078 -2.34352
RightFoot  -18.283 0.209393 5.56842
RightToes  -2.09809e-008 3.77894e-005 6.81332e-007
Spine  -4.5249 1.04665 6.0467
Spine1  6.72383 1.85271 -4.85724
HEad  -24.9801 39.8553 -18.3198
LeftShoulder1  6.49801 -12.2076 -35.3203
LeftArm  0.832022 26.3935 -32.0021
LeftForeArm  171.235 -59.1738 -163.452
LeftHand  -0.11076 -2.42472 1.83747
RightShoulder  3.47602 6.09165 30.3204
RightArm  16.3622 -30.3563 28.4013
RightForeArm  160.299 69.7189 152.43
RightHand  -0.292773 9.52437 -2.66948
LeftUpLeg  -20.5637 -1.2982 16.1749
LeftLeg  25.1013 5.5709 3.1716
LeftFoot  -1.34462 1.88238 -21.1558
LeftToes  1.24773e-006 1.46318e-008 1.32523e-009
466
root  -7.17582 38.1071 -0.544236 -162.979 76.0509 -173.752
RightUpLeg  -17.0641 9.74129 -4.44857
RightLeg  32.7144 -5.1872 -3.83837
RightFoot  -22.7737 0.321501 4.74928
RightToes  -2.09809e-008 3.77894e-005 6.81332e-007
Spine  -4.03728 1.81521 10.6587
Spine1  7.95625 2.96049 -6.93822
HEad  -27.4787 39.3646 -19.7841
LeftShoulder1  7.10882 -12.8072 -37.4971
LeftArm  0.186565 20.4984 -30.7176
LeftForeArm  170.715 -62.9559 -160.735
LeftHand  -0.258062 -2.1654 4.1614
RightShoulder  3.42293 6.00329 30.0964
RightArm  13.2189 -26.1274 30.0427
RightForeArm  155.59 73.0362 146.171
RightHand  -0.40595 9.39936 -3.57586
LeftUpLeg  -21.4662 -1.45715 17.9487
LeftLeg  29.4718 7.24246 4.76568
LeftFoot  -8.51271 0.560096 -20.1386
LeftToes  1.24773e-006 1.46318e-008 1.32523e-009
467
root  -7.07732 38.0849 -0.54138 -165.658 75.3811 -175.499
RightUpLeg  -16.1672 11.2945 -4.24167
RightLeg  33.8637 -7.35453 -5.52865
RightFoot  -22.6644 0.368314 5.26313
RightToes  -2.09809e-008 3.77894e-005 6.81332e-007
Spine  -4.94312 1.91325 8.32031
Spine1  9.63757 2.50808 -4.14885
HEad  -25.9478 40.086 -18.6724
LeftShoulder1  7.12741 -12.7778 -37.6835
LeftArm  -0.44904 18.4586 -32.3184
LeftForeArm  172.721 -64.3804 -159.795
LeftHand  -0.228643 -2.22235 3.68389
RightShoulder  3.43182 5.94062 30.4358
RightArm  9.74736 -26.3923 31.9461
RightForeArm  155.654 73.5098 145.24
RightHand  -0.363467 9.34367 -3.25257
LeftUpLeg  -21.0994 -4.26802 17.3152
LeftLeg  30.4647 10.4342 6.90709
LeftFoot  -7.59744 0.676744 -19.1662
LeftToes  1.24773e-006 1.46318e-008 1.32523e-009
468
root  -6.78988 38.9269 -0.583652 -171.694 73.3058 179.139
RightUpLeg  -13.3411 9.81589 -5.1494
RightLeg  30.9852 -7.58401 -5.14309
RightFoot  -18.35 0.272969 6.51855
RightToes  -2.09809e-008 3.77894e-005 6.81332e-007
Spine  -7.16222 0.911636 4.45874
Spine1  11.7641 0.817368 -0.8384
HEad  -22.863 42.2733 -17.3641
LeftShoulder1  6.50246 -12.0862 -35.6784
LeftArm  -0.495453 21.1604 -35.3531
LeftForeArm  173.975 -61.9125 -161.852
LeftHand  -0.16913 -2.39266 2.72587
RightShoulder  3.44181 5.92628 30.5998
RightArm  7.55819 -30.4776 35.0672
RightForeArm  159.171 71.4246 149.707
RightHand  -0.333281 9.51646 -2.98739
LeftUpLeg  -19.7127 -7.35439 15.9482
LeftLeg  27.4437 11.659 6.84123
LeftFoot  -1.30865 1.77678 -19.9575
LeftToes  1.24773e-006 1.46318e-008 1.32523e-009
